<svg width="1356" height="283" viewBox="0 0 1356 283" fill="none" xmlns="http://www.w3.org/2000/svg">
<path d="M384.784 128.027H415.93V280.633H384.784V128.027Z" fill="#6424B3"/>
<path d="M188.536 128.027H219.486L314.584 177.822V128.027H345.535V280.633H314.584V210.628L219.486 161.126V280.633H188.536V128.027Z" fill="#6424B3"/>
<path d="M0 128.027H30.9507V212.092C30.9507 218.992 31.8945 225.143 33.7821 230.545C35.6697 235.883 38.4686 240.407 42.1788 244.117C45.9541 247.827 50.6081 250.658 56.1408 252.611C61.6735 254.499 68.1175 255.443 75.4727 255.443C82.7629 255.443 89.1744 254.499 94.7071 252.611C100.305 250.658 104.959 247.827 108.669 244.117C112.444 240.407 115.276 235.883 117.163 230.545C119.051 225.143 119.995 218.992 119.995 212.092V128.027H150.945V215.802C150.945 225.826 149.253 234.939 145.868 243.14C142.484 251.342 137.569 258.372 131.125 264.23C124.681 270.088 116.773 274.612 107.4 277.801C98.0918 280.991 87.4494 282.585 75.4727 282.585C63.496 282.585 52.8212 280.991 43.4481 277.801C34.1401 274.612 26.2641 270.088 19.8201 264.23C13.3762 258.372 8.4618 251.342 5.07708 243.14C1.69236 234.939 0 225.826 0 215.802V128.027Z" fill="#6424B3"/>
<path d="M664.049 129.424H701.291V141.934C711.188 136.349 720.642 132.421 729.667 130.165C738.676 127.909 747.511 126.789 756.155 126.789C767.48 126.789 777.965 128.43 787.608 131.727C797.252 135.024 805.595 139.915 812.637 146.43C819.68 152.945 825.199 161.054 829.181 170.772C833.162 180.49 835.16 191.738 835.16 204.501V277.07H798.045V210.496C798.045 202.403 796.887 195.161 794.587 188.788C792.287 182.399 788.972 177.019 784.642 172.649C780.328 168.264 775.078 164.935 768.924 162.648C762.754 160.36 755.854 159.208 748.225 159.208C744.196 159.208 740.072 159.619 735.837 160.455C731.602 161.291 727.446 162.474 723.386 164.02C719.309 165.566 715.392 167.491 711.617 169.778C707.842 172.081 704.4 174.684 701.307 177.603V277.085H664.064V129.439L664.049 129.424Z" fill="#6424B3"/>
<path d="M1008.35 203.617C1008.35 192.779 1010.35 182.651 1014.33 173.28C1018.31 163.894 1024.15 155.769 1031.81 148.875C1039.49 141.997 1048.88 136.586 1059.99 132.673C1071.1 128.761 1083.79 126.789 1098.05 126.789C1104.25 126.789 1110.5 127.168 1116.79 127.909C1123.09 128.666 1129.15 129.723 1134.97 131.096C1140.79 132.468 1146.26 134.093 1151.39 135.971C1156.49 137.848 1160.95 139.915 1164.73 142.17L1147.49 170.078C1139.35 166.323 1131.66 163.562 1124.41 161.827C1117.16 160.076 1109.8 159.193 1102.33 159.193C1093.78 159.193 1086.1 160.297 1079.3 162.506C1072.51 164.714 1066.74 167.806 1061.99 171.766C1057.25 175.726 1053.65 180.395 1051.18 185.775C1048.7 191.154 1047.46 197.023 1047.46 203.349C1047.46 209.675 1048.78 215.544 1051.43 220.923C1054.08 226.303 1057.81 230.941 1062.63 234.806C1067.45 238.687 1073.27 241.732 1080.11 243.94C1086.94 246.149 1094.56 247.253 1102.95 247.253C1112.18 247.253 1120.87 245.96 1129.05 243.372C1137.24 240.785 1144.84 237.33 1151.89 232.992L1169.14 260.899C1164.69 263.565 1159.87 266.058 1154.67 268.345C1149.47 270.649 1143.92 272.621 1138 274.293C1132.08 275.965 1125.88 277.275 1119.38 278.237C1112.88 279.199 1106.15 279.673 1099.19 279.673C1085.01 279.673 1072.3 277.748 1061.07 273.914C1049.83 270.081 1040.31 264.764 1032.52 257.965C1024.72 251.166 1018.75 243.136 1014.6 233.875C1010.44 224.615 1008.37 214.518 1008.37 203.586" fill="#6424B3"/>
<path d="M1222.99 229.272C1222.99 231.686 1223.62 234.005 1224.87 236.214C1226.13 238.422 1228.14 240.379 1230.92 242.098C1233.69 243.802 1237.23 245.19 1241.54 246.231C1245.86 247.273 1251.08 247.793 1257.2 247.793C1263.73 247.793 1270.08 247.209 1276.2 246.042C1282.32 244.875 1288.03 243.329 1293.32 241.404C1298.6 239.479 1303.37 237.271 1307.65 234.778C1311.94 232.27 1315.49 229.698 1318.34 227.016V220.501C1312.63 218.923 1307 217.583 1301.42 216.494C1295.84 215.405 1290.52 214.554 1285.45 213.923C1280.37 213.291 1275.6 212.866 1271.11 212.613C1266.62 212.361 1262.7 212.235 1259.34 212.235C1252.38 212.235 1246.59 212.692 1241.97 213.607C1237.36 214.522 1233.63 215.753 1230.77 217.299C1227.92 218.845 1225.91 220.659 1224.73 222.741C1223.56 224.824 1222.97 227.001 1222.97 229.241M1183.73 230.534C1183.73 223.451 1185.28 216.983 1188.38 211.146C1191.49 205.309 1196.13 200.276 1202.34 196.064C1208.54 191.852 1216.28 188.602 1225.54 186.299C1234.8 184.012 1245.6 182.86 1257.93 182.86C1267.07 182.86 1276.69 183.523 1286.8 184.863C1296.9 186.204 1307.32 188.239 1318.06 191C1317.65 186.331 1316.22 182.008 1313.78 178.048C1311.35 174.089 1307.97 170.665 1303.64 167.778C1299.33 164.907 1294.12 162.667 1288.05 161.089C1281.97 159.512 1275.08 158.707 1267.35 158.707C1263.16 158.707 1258.55 158.96 1253.52 159.464C1248.49 159.969 1243.29 160.711 1237.93 161.72C1232.57 162.714 1227.25 163.976 1222.02 165.475C1216.77 166.974 1211.88 168.772 1207.36 170.855L1196.04 140.455C1201.65 138.451 1207.68 136.621 1214.09 134.949C1220.51 133.277 1227.06 131.841 1233.77 130.626C1240.48 129.411 1247.19 128.481 1253.9 127.818C1260.61 127.156 1267.11 126.824 1273.39 126.824C1301.15 126.824 1321.79 133.876 1335.28 147.964C1348.78 162.067 1355.54 183.665 1355.54 212.787V277.105H1318.3V263.222C1314.44 265.478 1310.22 267.608 1305.66 269.595C1301.09 271.599 1296.11 273.35 1290.75 274.849C1285.39 276.347 1279.61 277.546 1273.44 278.414C1267.27 279.298 1260.75 279.723 1253.88 279.723C1242.31 279.723 1232.14 278.477 1223.38 275.969C1214.61 273.46 1207.3 270.006 1201.43 265.588C1195.56 261.171 1191.14 255.981 1188.16 250.018C1185.17 244.054 1183.68 237.57 1183.68 230.566" fill="#6424B3"/>
<path d="M628.298 277.069V129.297H591.056V228.779C588.534 231.445 585.536 233.906 582.063 236.162C578.589 238.418 574.83 240.359 570.801 241.984C566.772 243.608 562.553 244.886 558.16 245.801C553.75 246.716 549.42 247.174 545.138 247.174C536.081 247.174 528.515 246.07 522.424 243.861C516.349 241.652 511.48 238.544 507.832 234.537C504.184 230.53 501.598 225.719 500.091 220.087C498.585 214.455 497.823 208.223 497.823 201.377V186.232H460.724V206.63C460.724 218.225 462.151 228.543 465.006 237.598C467.861 246.653 472.366 254.289 478.536 260.504C484.706 266.72 492.621 271.453 502.312 274.703C512.003 277.952 523.63 279.577 537.223 279.577C545.518 279.577 554.29 278.41 563.521 276.075C572.752 273.74 581.936 269.859 591.072 264.433V277.069H628.314H628.298Z" fill="#6424B3"/>
<path d="M460.724 129.297V186.216L497.839 151.068V129.297H460.724Z" fill="#6424B3"/>
<path d="M870.848 243.607H913.816V173.01L876.13 181.529L875.036 147.532L952.169 124.184V243.607H993.186V277.067H870.848V243.607Z" fill="#6424B3"/>
<path d="M1313.73 15.0664H1324.57L1348.97 65.5041H1338.22L1334.19 57.0171H1304.73L1300.82 65.5041H1290.04L1313.73 15.0664ZM1330.16 48.5947L1319.25 25.6832L1308.63 48.5947H1330.16Z" fill="#6424B3"/>
<path d="M1232.8 39.9824C1232.8 36.3897 1233.48 33.0444 1234.83 29.9465C1236.19 26.8271 1238.14 24.1272 1240.7 21.8468C1243.29 19.5449 1246.43 17.7378 1250.13 16.4255C1253.85 15.1132 1258.05 14.457 1262.74 14.457C1266.85 14.457 1270.62 14.8765 1274.04 15.7156C1277.48 16.5331 1280.67 17.7916 1283.62 19.4911L1278.91 27.2359C1278.03 26.655 1277.01 26.1387 1275.85 25.6869C1274.7 25.2351 1273.48 24.8587 1272.17 24.5575C1270.88 24.2348 1269.53 23.9874 1268.13 23.8153C1266.76 23.6432 1265.39 23.5571 1264.03 23.5571C1260.76 23.5571 1257.85 23.9659 1255.29 24.7834C1252.73 25.5793 1250.57 26.7088 1248.8 28.1717C1247.06 29.6131 1245.73 31.3449 1244.8 33.3671C1243.9 35.3678 1243.45 37.5729 1243.45 39.9824C1243.45 42.478 1243.92 44.7691 1244.87 46.8559C1245.81 48.9427 1247.18 50.7498 1248.96 52.2772C1250.77 53.7831 1252.97 54.9664 1255.55 55.8269C1258.15 56.6659 1261.09 57.0854 1264.36 57.0854C1265.84 57.0854 1267.32 56.9778 1268.78 56.7627C1270.24 56.5476 1271.65 56.2571 1273.01 55.8914C1274.38 55.5042 1275.71 55.0524 1276.97 54.5361C1278.24 53.9983 1279.43 53.4174 1280.52 52.7935L1285.24 60.5383C1282.48 62.3023 1279.3 63.6899 1275.68 64.7011C1272.07 65.6907 1268.23 66.1855 1264.16 66.1855C1258.98 66.1855 1254.43 65.5186 1250.51 64.1847C1246.6 62.8294 1243.33 60.9793 1240.7 58.6343C1238.08 56.2679 1236.1 53.4927 1234.77 50.3087C1233.45 47.1033 1232.8 43.6612 1232.8 39.9824Z" fill="#6424B3"/>
<path d="M1212.5 15.0664H1222.79V65.5041H1212.5V15.0664Z" fill="#6424B3"/>
<path d="M1147.64 15.0664H1157.87L1189.3 31.524V15.0664H1199.53V65.5041H1189.3V42.3666L1157.87 26.0059V65.5041H1147.64V15.0664Z" fill="#6424B3"/>
<path d="M1085.32 15.07H1095.55V42.8543C1095.55 45.1347 1095.87 47.1677 1096.49 48.9532C1097.11 50.7173 1098.04 52.2125 1099.26 53.4387C1100.51 54.665 1102.05 55.6008 1103.88 56.2462C1105.71 56.8701 1107.84 57.182 1110.27 57.182C1112.68 57.182 1114.8 56.8701 1116.63 56.2462C1118.48 55.6008 1120.01 54.665 1121.24 53.4387C1122.49 52.2125 1123.42 50.7173 1124.05 48.9532C1124.67 47.1677 1124.98 45.1347 1124.98 42.8543V15.07H1135.21V44.0805C1135.21 47.3935 1134.65 50.4054 1133.54 53.116C1132.42 55.8267 1130.79 58.1501 1128.66 60.0863C1126.53 62.0225 1123.92 63.5177 1120.82 64.5718C1117.74 65.626 1114.23 66.153 1110.27 66.153C1106.31 66.153 1102.78 65.626 1099.68 64.5718C1096.61 63.5177 1094 62.0225 1091.87 60.0863C1089.75 58.1501 1088.12 55.8267 1087 53.116C1085.88 50.4054 1085.32 47.3935 1085.32 44.0805V15.07ZM1098.26 6.09899L1120.01 0L1122.27 8.0029L1100.27 13.1338L1098.26 6.09899Z" fill="#6424B3"/>
<path d="M996.228 40.1419C996.228 36.3341 996.927 32.8489 998.325 29.6865C999.723 26.5241 1001.68 23.8134 1004.2 21.5545C1006.74 19.2741 1009.77 17.51 1013.3 16.2623C1016.85 15.0145 1020.77 14.3906 1025.08 14.3906C1029.36 14.3906 1033.27 15.0145 1036.82 16.2623C1040.37 17.51 1043.41 19.2741 1045.92 21.5545C1048.46 23.8134 1050.43 26.5241 1051.83 29.6865C1053.23 32.8489 1053.93 36.3341 1053.93 40.1419C1053.93 43.9712 1053.23 47.4887 1051.83 50.6941C1050.43 53.8781 1048.46 56.621 1045.92 58.9229C1043.41 61.2248 1040.37 63.0212 1036.82 64.312C1033.27 65.5812 1029.36 66.2159 1025.08 66.2159C1020.77 66.2159 1016.85 65.5812 1013.3 64.312C1009.77 63.0212 1006.74 61.2248 1004.2 58.9229C1001.68 56.621 999.723 53.8781 998.325 50.6941C996.927 47.4887 996.228 43.9712 996.228 40.1419ZM1006.46 40.1419C1006.46 42.745 1006.92 45.0899 1007.84 47.1767C1008.79 49.2635 1010.09 51.0491 1011.75 52.5335C1013.43 53.9964 1015.4 55.1258 1017.65 55.9218C1019.94 56.7178 1022.41 57.1158 1025.08 57.1158C1027.74 57.1158 1030.21 56.7178 1032.47 55.9218C1034.75 55.1258 1036.72 53.9964 1038.37 52.5335C1040.03 51.0491 1041.33 49.2635 1042.28 47.1767C1043.22 45.0899 1043.7 42.745 1043.7 40.1419C1043.7 37.5388 1043.22 35.2046 1042.28 33.1394C1041.33 31.0741 1040.03 29.3315 1038.37 27.9117C1036.72 26.4703 1034.75 25.3731 1032.47 24.6201C1030.21 23.8672 1027.74 23.4907 1025.08 23.4907C1022.41 23.4907 1019.94 23.8672 1017.65 24.6201C1015.4 25.3731 1013.43 26.4703 1011.75 27.9117C1010.09 29.3315 1008.79 31.0741 1007.84 33.1394C1006.92 35.2046 1006.46 37.5388 1006.46 40.1419Z" fill="#6424B3"/>
<path d="M975.833 15.0664H986.127V65.5041H975.833V15.0664Z" fill="#6424B3"/>
<path d="M916.65 15.0664H942.304C946.177 15.0664 949.533 15.4752 952.373 16.2927C955.212 17.0886 957.568 18.2504 959.44 19.7778C961.311 21.3052 962.699 23.1661 963.602 25.3605C964.527 27.5548 964.99 30.0396 964.99 32.8148C964.99 34.6864 964.764 36.472 964.312 38.1716C963.861 39.8496 963.161 41.3985 962.215 42.8184C961.29 44.2383 960.117 45.5076 958.697 46.6262C957.278 47.7234 955.61 48.6377 953.696 49.3692L964.667 65.5041H952.147L942.659 51.1763H942.369L926.879 51.144V65.5041H916.65V15.0664ZM942.563 42.3021C944.499 42.3021 946.188 42.0762 947.629 41.6244C949.092 41.1726 950.307 40.538 951.275 39.7205C952.265 38.903 952.996 37.9134 953.47 36.7517C953.964 35.5685 954.212 34.2562 954.212 32.8148C954.212 29.9966 953.244 27.8237 951.308 26.2963C949.371 24.7473 946.456 23.9729 942.563 23.9729H926.879V42.3021H942.563Z" fill="#6424B3"/>
<path d="M873.57 15.07H884.413L908.809 65.5076H898.063L894.029 57.0207H864.567L860.662 65.5076H849.884L873.57 15.07ZM889.995 48.5983L879.088 25.6867L868.471 48.5983H889.995ZM867.084 6.09899L888.834 0L891.093 8.0029L869.085 13.1338L867.084 6.09899Z" fill="#6424B3"/>
<path d="M816.582 24.0374H797.962V15.0664H845.431V24.0374H826.811V65.5041H816.582V24.0374Z" fill="#6424B3"/>
<path d="M778.019 15.0664H788.313V65.5041H778.019V15.0664Z" fill="#6424B3"/>
<path d="M715.577 50.4995C717.406 51.5321 719.256 52.4679 721.128 53.3069C723.021 54.1245 724.978 54.8236 727.001 55.4045C729.023 55.9638 731.142 56.3941 733.358 56.6953C735.595 56.9965 737.972 57.1471 740.489 57.1471C743.523 57.1471 746.104 56.9534 748.234 56.5662C750.364 56.1574 752.096 55.6089 753.43 54.9204C754.785 54.2105 755.764 53.3715 756.366 52.4034C756.99 51.4353 757.302 50.3812 757.302 49.241C757.302 47.4123 756.538 45.971 755.011 44.9168C753.483 43.8412 751.128 43.3033 747.944 43.3033C746.545 43.3033 745.072 43.4001 743.523 43.5937C741.974 43.7659 740.403 43.9595 738.811 44.1746C737.241 44.3897 735.681 44.5941 734.132 44.7877C732.605 44.9598 731.163 45.0459 729.808 45.0459C727.549 45.0459 725.376 44.7555 723.29 44.1746C721.224 43.5937 719.385 42.7225 717.771 41.5608C716.179 40.399 714.91 38.9469 713.964 37.2043C713.017 35.4618 712.544 33.4288 712.544 31.1053C712.544 29.7285 712.727 28.3624 713.092 27.0071C713.48 25.6518 714.082 24.361 714.899 23.1347C715.738 21.8869 716.814 20.736 718.126 19.6818C719.439 18.6062 721.02 17.6811 722.87 16.9066C724.742 16.1322 726.893 15.5298 729.324 15.0995C731.777 14.6478 734.562 14.4219 737.682 14.4219C739.941 14.4219 742.21 14.551 744.491 14.8091C746.771 15.0458 748.987 15.39 751.138 15.8417C753.311 16.2935 755.398 16.8421 757.399 17.4875C759.399 18.1114 761.26 18.8106 762.981 19.585L758.496 27.8461C757.076 27.2222 755.549 26.6521 753.914 26.1358C752.279 25.598 750.568 25.1354 748.783 24.7482C746.997 24.361 745.147 24.0598 743.232 23.8446C741.339 23.608 739.403 23.4897 737.424 23.4897C734.606 23.4897 732.282 23.6941 730.453 24.1028C728.646 24.5116 727.205 25.0386 726.129 25.684C725.054 26.3079 724.301 27.0178 723.87 27.8138C723.462 28.5883 723.257 29.3628 723.257 30.1373C723.257 31.6432 723.935 32.8802 725.29 33.8483C726.646 34.7949 728.711 35.2681 731.486 35.2681C732.605 35.2681 733.885 35.1929 735.326 35.0423C736.789 34.8702 738.317 34.6873 739.909 34.4937C741.522 34.3001 743.157 34.1279 744.814 33.9774C746.492 33.8053 748.116 33.7192 749.686 33.7192C752.655 33.7192 755.28 34.0527 757.56 34.7196C759.862 35.3865 761.787 36.3438 763.336 37.5916C764.885 38.8178 766.058 40.313 766.854 42.0771C767.65 43.8196 768.048 45.7773 768.048 47.9502C768.048 50.8544 767.37 53.4468 766.015 55.7272C764.681 57.9861 762.766 59.9007 760.271 61.4712C757.797 63.0201 754.806 64.2034 751.3 65.0209C747.793 65.8169 743.888 66.2149 739.586 66.2149C736.746 66.2149 733.971 66.032 731.26 65.6663C728.55 65.3221 725.946 64.8273 723.451 64.1819C720.977 63.515 718.61 62.7297 716.352 61.8262C714.114 60.9011 712.038 59.89 710.124 58.7928L715.577 50.4995Z" fill="#6424B3"/>
<path d="M652.748 15.0664H678.403C682.275 15.0664 685.631 15.4752 688.471 16.2927C691.31 17.0886 693.666 18.2504 695.538 19.7778C697.409 21.3052 698.797 23.1661 699.701 25.3605C700.626 27.5548 701.088 30.0396 701.088 32.8148C701.088 34.6864 700.862 36.472 700.41 38.1716C699.959 39.8496 699.26 41.3985 698.313 42.8184C697.388 44.2383 696.215 45.5076 694.796 46.6262C693.376 47.7234 691.708 48.6377 689.794 49.3692L700.765 65.5041H688.245L678.757 51.1763H678.467L662.978 51.144V65.5041H652.748V15.0664ZM678.661 42.3021C680.597 42.3021 682.286 42.0762 683.727 41.6244C685.19 41.1726 686.405 40.538 687.373 39.7205C688.363 38.903 689.095 37.9134 689.568 36.7517C690.063 35.5685 690.31 34.2562 690.31 32.8148C690.31 29.9966 689.342 27.8237 687.406 26.2963C685.47 24.7473 682.555 23.9729 678.661 23.9729H662.978V42.3021H678.661Z" fill="#6424B3"/>
<path d="M597.76 15.0664H640.711V24.0374H607.99V34.1056H636.968V42.528H607.99V56.5653H641.389V65.5041H597.76V15.0664Z" fill="#6424B3"/>
<path d="M535.835 15.0664H547.161L563.006 53.532L578.85 15.0664H590.177L568.072 65.5041H557.94L535.835 15.0664Z" fill="#6424B3"/>
<path d="M519.216 15.0664H529.51V65.5041H519.216V15.0664Z" fill="#6424B3"/>
<path d="M454.354 15.0664H464.583L496.014 31.524V15.0664H506.243V65.5041H496.014V42.3666L464.583 26.0059V65.5041H454.354V15.0664Z" fill="#6424B3"/>
<path d="M392.041 15.0664H402.27V42.8507C402.27 45.1311 402.582 47.1641 403.206 48.9497C403.83 50.7137 404.755 52.2089 405.981 53.4352C407.229 54.6614 408.767 55.5972 410.596 56.2426C412.424 56.8665 414.554 57.1785 416.985 57.1785C419.395 57.1785 421.514 56.8665 423.342 56.2426C425.192 55.5972 426.731 54.6614 427.957 53.4352C429.205 52.2089 430.14 50.7137 430.764 48.9497C431.388 47.1641 431.7 45.1311 431.7 42.8507V15.0664H441.93V44.0769C441.93 47.39 441.37 50.4018 440.252 53.1125C439.133 55.8231 437.509 58.1466 435.379 60.0827C433.249 62.0189 430.635 63.5141 427.537 64.5682C424.461 65.6224 420.943 66.1495 416.985 66.1495C413.027 66.1495 409.498 65.6224 406.401 64.5682C403.324 63.5141 400.721 62.0189 398.591 60.0827C396.461 58.1466 394.837 55.8231 393.719 53.1125C392.6 50.4018 392.041 47.39 392.041 44.0769V15.0664Z" fill="#6424B3"/>
<path d="M302.944 40.1419C302.944 36.3341 303.643 32.8489 305.041 29.6865C306.44 26.5241 308.397 23.8134 310.914 21.5545C313.453 19.2741 316.486 17.51 320.015 16.2623C323.564 15.0145 327.49 14.3906 331.793 14.3906C336.074 14.3906 339.99 15.0145 343.539 16.2623C347.089 17.51 350.122 19.2741 352.639 21.5545C355.178 23.8134 357.146 26.5241 358.545 29.6865C359.943 32.8489 360.642 36.3341 360.642 40.1419C360.642 43.9712 359.943 47.4887 358.545 50.6941C357.146 53.8781 355.178 56.621 352.639 58.9229C350.122 61.2248 347.089 63.0212 343.539 64.312C339.99 65.5812 336.074 66.2159 331.793 66.2159C327.49 66.2159 323.564 65.5812 320.015 64.312C316.486 63.0212 313.453 61.2248 310.914 58.9229C308.397 56.621 306.44 53.8781 305.041 50.6941C303.643 47.4887 302.944 43.9712 302.944 40.1419ZM313.173 40.1419C313.173 42.745 313.636 45.0899 314.561 47.1767C315.508 49.2635 316.809 51.0491 318.466 52.5335C320.144 53.9964 322.112 55.1258 324.371 55.9218C326.651 56.7178 329.125 57.1158 331.793 57.1158C334.461 57.1158 336.924 56.7178 339.183 55.9218C341.463 55.1258 343.432 53.9964 345.088 52.5335C346.745 51.0491 348.046 49.2635 348.993 47.1767C349.939 45.0899 350.413 42.745 350.413 40.1419C350.413 37.5388 349.939 35.2046 348.993 33.1394C348.046 31.0741 346.745 29.3315 345.088 27.9117C343.432 26.4703 341.463 25.3731 339.183 24.6201C336.924 23.8672 334.461 23.4907 331.793 23.4907C329.125 23.4907 326.651 23.8672 324.371 24.6201C322.112 25.3731 320.144 26.4703 318.466 27.9117C316.809 29.3315 315.508 31.0741 314.561 33.1394C313.636 35.2046 313.173 37.5388 313.173 40.1419Z" fill="#6424B3"/>
<path d="M245.439 15.0664H271.094C274.966 15.0664 278.322 15.4752 281.162 16.2927C284.002 17.0886 286.357 18.2504 288.229 19.7778C290.101 21.3052 291.488 23.1661 292.392 25.3605C293.317 27.5548 293.779 30.0396 293.779 32.8148C293.779 34.6864 293.553 36.472 293.102 38.1716C292.65 39.8496 291.951 41.3985 291.004 42.8184C290.079 44.2383 288.907 45.5076 287.487 46.6262C286.067 47.7234 284.4 48.6377 282.485 49.3692L293.457 65.5041H280.936L271.449 51.1763H271.158L255.669 51.144V65.5041H245.439V15.0664ZM271.352 42.3021C273.288 42.3021 274.977 42.0762 276.418 41.6244C277.881 41.1726 279.097 40.538 280.065 39.7205C281.054 38.903 281.786 37.9134 282.259 36.7517C282.754 35.5685 283.001 34.2562 283.001 32.8148C283.001 29.9966 282.033 27.8237 280.097 26.2963C278.161 24.7473 275.246 23.9729 271.352 23.9729H255.669V42.3021H271.352Z" fill="#6424B3"/>
<path d="M205.65 24.0374H187.031V15.0664H234.5V24.0374H215.88V65.5041H205.65V24.0374Z" fill="#6424B3"/>
<path d="M124.298 15.0664H134.528L165.958 31.524V15.0664H176.188V65.5041H165.958V42.3666L134.528 26.0059V65.5041H124.298V15.0664Z" fill="#6424B3"/>
<path d="M69.3751 15.0664H112.326V24.0374H79.6046V34.1056H108.583V42.528H79.6046V56.5653H113.004V65.5041H69.3751V15.0664Z" fill="#6424B3"/>
<path d="M5.64233 39.9824C5.64233 36.3897 6.32 33.0444 7.67533 29.9465C9.03066 26.8271 10.9884 24.1272 13.5484 21.8468C16.13 19.5449 19.2709 17.7378 22.9712 16.4255C26.693 15.1132 30.8988 14.457 35.5887 14.457C39.6977 14.457 43.4625 14.8765 46.8831 15.7156C50.3252 16.5331 53.5199 17.7916 56.4672 19.4911L51.7558 27.2359C50.8738 26.655 49.8519 26.1387 48.6902 25.6869C47.55 25.2351 46.3238 24.8587 45.0115 24.5575C43.7207 24.2348 42.3761 23.9874 40.9777 23.8153C39.6009 23.6432 38.2348 23.5571 36.8795 23.5571C33.6095 23.5571 30.6944 23.9659 28.1344 24.7834C25.5743 25.5793 23.4122 26.7088 21.6481 28.1717C19.9056 29.6131 18.5718 31.3449 17.6467 33.3671C16.7431 35.3678 16.2914 37.5729 16.2914 39.9824C16.2914 42.478 16.7646 44.7691 17.7112 46.8559C18.6578 48.9427 20.0239 50.7498 21.8095 52.2772C23.6166 53.7831 25.8109 54.9664 28.3925 55.8269C30.9956 56.6659 33.9322 57.0854 37.2022 57.0854C38.6866 57.0854 40.1602 56.9778 41.6231 56.7627C43.086 56.5476 44.4951 56.2571 45.8505 55.8914C47.2273 55.5042 48.5504 55.0524 49.8197 54.5361C51.0889 53.9983 52.2722 53.4174 53.3693 52.7935L58.0807 60.5383C55.327 62.3023 52.1431 63.6899 48.5289 64.7011C44.9146 65.6907 41.0745 66.1855 37.0086 66.1855C31.8239 66.1855 27.2738 65.5186 23.3584 64.1847C19.443 62.8294 16.173 60.9793 13.5484 58.6343C10.9238 56.2679 8.94461 53.4927 7.61079 50.3087C6.29849 47.1033 5.64233 43.6612 5.64233 39.9824Z" fill="#6424B3"/>
</svg>
